<svg xmlns="http://www.w3.org/2000/svg" xmlns:svg="http://www.w3.org/2000/svg" id="svg860" width="39.087" height="82.523" version="1.1" viewBox="0 0 10.342 21.834"><g id="layer1" transform="translate(-75.426891,-38.649508)"><path id="path2" fill="#f7d186" d="m 79.377961,53.4768 h 2.4399 v 5.787073 c 0,0.673761 -0.54617,1.219967 -1.21994,1.219967 v 0 c -0.67376,0 -1.21996,-0.546206 -1.21996,-1.219967 z" style="stroke-width:.264583"/><path id="path4" fill="#1347ff" fill-rule="evenodd" d="m 81.817891,38.93669 c 0,1.337905 -1.08461,2.422512 -2.42252,2.422512 -0.26485,0 -0.5198,-0.04252 -0.75835,-0.121074 7.4e-4,0.02466 10e-4,0.0494 10e-4,0.07422 0,1.337918 -1.08459,2.422525 -2.42251,2.422525 -0.27589,0 -0.54102,-0.04612 -0.78808,-0.131075 -3.6e-4,0.02527 -5.4e-4,0.05059 -5.4e-4,0.07594 v 9.61419 c 0,0.959644 0.77795,1.737599 1.7376,1.737599 h 6.86666 c 0.95965,0 1.7376,-0.777955 1.7376,-1.737599 V 43.67973 c 0,-2.441602 -1.69225,-4.487966 -3.96782,-5.030222 0.0111,0.09418 0.0168,0.190011 0.0168,0.287182 z m -3.21744,6.443755 c -0.58404,0 -1.07074,0.642461 -1.07074,1.460103 0,0.817642 0.4867,1.460103 1.07074,1.460103 0.58402,0 1.07074,-0.642461 1.07074,-1.460103 0,-0.817642 -0.48672,-1.460103 -1.07074,-1.460103 z m 3.99492,-5.3e-5 c -0.58402,0 -1.07072,0.661908 -1.07072,1.460103 0,0.798168 0.4867,1.460103 1.07072,1.460103 0.58404,0 1.07074,-0.661935 1.07074,-1.460103 0,-0.817668 -0.4867,-1.460103 -1.07074,-1.460103 z" clip-rule="evenodd" style="stroke-width:.264583"/></g></svg>